<svg width="8" height="10" viewBox="0 0 8 10" fill="none" xmlns="http://www.w3.org/2000/svg">
<g clip-path="url(#clip0_1263_408)">
<path d="M5.34921 3.02022C5.34921 2.64779 5.20574 2.29062 4.95038 2.02727C4.69501 1.76393 4.34866 1.61598 3.98752 1.61598C3.62638 1.61598 3.28003 1.76393 3.02467 2.02727C2.7693 2.29062 2.62584 2.64779 2.62584 3.02022C2.62584 3.39264 2.7693 3.74982 3.02467 4.01316C3.28003 4.27651 3.62638 4.42445 3.98752 4.42445C4.34866 4.42445 4.69501 4.27651 4.95038 4.01316C5.20574 3.74982 5.34921 3.39264 5.34921 3.02022ZM1.80883 3.02022C1.80883 2.42433 2.03837 1.85286 2.44695 1.4315C2.85554 1.01015 3.4097 0.773438 3.98752 0.773438C4.56535 0.773438 5.11951 1.01015 5.52809 1.4315C5.93668 1.85286 6.16622 2.42433 6.16622 3.02022C6.16622 3.6161 5.93668 4.18758 5.52809 4.60893C5.11951 5.03028 4.56535 5.267 3.98752 5.267C3.4097 5.267 2.85554 5.03028 2.44695 4.60893C2.03837 4.18758 1.80883 3.6161 1.80883 3.02022ZM1.01394 8.91801H6.9628C6.81132 7.80691 5.88537 6.95208 4.76709 6.95208H3.21136C2.09308 6.95208 1.16713 7.80691 1.01564 8.91801H1.01394ZM0.174805 9.23923C0.174805 7.51027 1.53309 6.10954 3.20966 6.10954H4.76538C6.44196 6.10954 7.80024 7.51027 7.80024 9.23923C7.80024 9.5271 7.57386 9.76056 7.29471 9.76056H0.68033C0.401185 9.76056 0.174805 9.5271 0.174805 9.23923Z" fill="#F1F1F1"/>
</g>
<defs>
<clipPath id="clip0_1263_408">
<rect width="7.62543" height="8.98712" fill="white" transform="translate(0.174805 0.773438)"/>
</clipPath>
</defs>
</svg>
