<svg width="10" height="10" viewBox="0 0 10 10" fill="none" xmlns="http://www.w3.org/2000/svg">
<path d="M8.88592 1.92033H8.40561V1.44003C8.40561 1.31264 8.355 1.19047 8.26493 1.1004C8.17485 1.01032 8.05269 0.959717 7.9253 0.959717C7.79791 0.959717 7.67575 1.01032 7.58567 1.1004C7.49559 1.19047 7.44499 1.31264 7.44499 1.44003V1.92033H6.96468C6.8373 1.92033 6.71513 1.97094 6.62505 2.06101C6.53498 2.15109 6.48438 2.27326 6.48438 2.40064C6.48438 2.52803 6.53498 2.6502 6.62505 2.74027C6.71513 2.83035 6.8373 2.88095 6.96468 2.88095H7.44499V3.36126C7.44499 3.48864 7.49559 3.61081 7.58567 3.70089C7.67575 3.79096 7.79791 3.84157 7.9253 3.84157C8.05269 3.84157 8.17485 3.79096 8.26493 3.70089C8.355 3.61081 8.40561 3.48864 8.40561 3.36126V2.88095H8.88592C9.0133 2.88095 9.13547 2.83035 9.22555 2.74027C9.31562 2.6502 9.36622 2.52803 9.36622 2.40064C9.36622 2.27326 9.31562 2.15109 9.22555 2.06101C9.13547 1.97094 9.0133 1.92033 8.88592 1.92033Z" fill="#F1F1F1"/>
<path d="M3.6019 4.32196C3.98188 4.32196 4.35333 4.20928 4.66928 3.99817C4.98522 3.78706 5.23147 3.48701 5.37688 3.13595C5.5223 2.78489 5.56035 2.39859 5.48621 2.02591C5.41208 1.65323 5.2291 1.3109 4.96041 1.04221C4.69172 0.77352 4.34939 0.59054 3.97671 0.516409C3.60403 0.442278 3.21773 0.480325 2.86667 0.625738C2.51561 0.771152 2.21556 1.0174 2.00445 1.33335C1.79334 1.64929 1.68066 2.02074 1.68066 2.40073C1.68066 2.91027 1.88308 3.39894 2.24338 3.75924C2.60368 4.11954 3.09235 4.32196 3.6019 4.32196ZM3.6019 1.44011C3.79189 1.44011 3.97761 1.49645 4.13559 1.602C4.29356 1.70756 4.41668 1.85758 4.48939 2.03311C4.5621 2.20864 4.58112 2.40179 4.54406 2.58813C4.50699 2.77447 4.4155 2.94564 4.28116 3.07998C4.14681 3.21433 3.97565 3.30582 3.7893 3.34288C3.60296 3.37995 3.40981 3.36093 3.23428 3.28822C3.05876 3.21551 2.90873 3.09239 2.80317 2.93442C2.69762 2.77644 2.64128 2.59072 2.64128 2.40073C2.64128 2.14595 2.74249 1.90162 2.92264 1.72147C3.10279 1.54132 3.34713 1.44011 3.6019 1.44011Z" fill="#F1F1F1"/>
<path d="M3.60239 5.28247C2.71069 5.28247 1.85551 5.6367 1.22499 6.26722C0.594461 6.89775 0.240234 7.75293 0.240234 8.64463C0.240234 8.77201 0.290838 8.89418 0.380913 8.98426C0.470989 9.07433 0.593157 9.12494 0.720543 9.12494C0.847928 9.12494 0.970096 9.07433 1.06017 8.98426C1.15025 8.89418 1.20085 8.77201 1.20085 8.64463C1.20085 8.0077 1.45387 7.39686 1.90425 6.94648C2.35462 6.49611 2.96546 6.24309 3.60239 6.24309C4.23932 6.24309 4.85016 6.49611 5.30054 6.94648C5.75091 7.39686 6.00393 8.0077 6.00393 8.64463C6.00393 8.77201 6.05454 8.89418 6.14461 8.98426C6.23469 9.07433 6.35686 9.12494 6.48424 9.12494C6.61163 9.12494 6.7338 9.07433 6.82387 8.98426C6.91395 8.89418 6.96455 8.77201 6.96455 8.64463C6.96455 7.75293 6.61032 6.89775 5.9798 6.26722C5.34927 5.6367 4.49409 5.28247 3.60239 5.28247Z" fill="#F1F1F1"/>
</svg>
