<svg width="12" height="12" viewBox="0 0 12 12" fill="none" xmlns="http://www.w3.org/2000/svg">
<path d="M9.67817 7.47611C9.86462 7.26305 9.86462 6.91702 9.67817 6.70396L7.76899 4.52214C7.58254 4.30907 7.27976 4.30907 7.09332 4.52214C6.90687 4.73521 6.90687 5.08123 7.09332 5.2943L8.18811 6.54543H5.04542C4.78141 6.54543 4.56812 6.78918 4.56812 7.09089C4.56812 7.39259 4.78141 7.63634 5.04542 7.63634H8.18811L7.09332 8.88748C6.90687 9.10055 6.90687 9.44657 7.09332 9.65964C7.27976 9.87271 7.58254 9.87271 7.76899 9.65964L9.67817 7.47782V7.47611ZM4.56812 4.36361C4.83213 4.36361 5.04542 4.11986 5.04542 3.81816C5.04542 3.51646 4.83213 3.27271 4.56812 3.27271H3.61353C2.82301 3.27271 2.18164 4.00566 2.18164 4.90907V9.27271C2.18164 10.1761 2.82301 10.9091 3.61353 10.9091H4.56812C4.83213 10.9091 5.04542 10.6653 5.04542 10.3636C5.04542 10.0619 4.83213 9.81816 4.56812 9.81816H3.61353C3.34952 9.81816 3.13623 9.57441 3.13623 9.27271V4.90907C3.13623 4.60736 3.34952 4.36361 3.61353 4.36361H4.56812Z" fill="#F1F1F1"/>
</svg>
